<?xml version="1.0" standalone="no"?>
<!DOCTYPE svg PUBLIC "-//W3C//DTD SVG 20010904//EN"
 "http://www.w3.org/TR/2001/REC-SVG-20010904/DTD/svg10.dtd">
<svg version="1.0" xmlns="http://www.w3.org/2000/svg"
 width="750.000000pt" height="500.000000pt" viewBox="0 0 750.000000 500.000000"
 preserveAspectRatio="xMidYMid meet">

<g transform="translate(0.000000,500.000000) scale(0.100000,-0.100000)"
fill="#000000" stroke="none">
<path d="M7 4993 c-4 -3 -7 -1128 -7 -2500 l0 -2493 3750 0 3750 0 0 2500 0
2500 -3743 0 c-2059 0 -3747 -3 -3750 -7z m7483 -2493 l0 -2490 -3740 0 -3740
0 0 2490 0 2490 3740 0 3740 0 0 -2490z"/>
<path d="M2945 4823 c-304 -36 -551 -125 -784 -282 -563 -380 -842 -1067 -705
-1739 24 -122 89 -303 149 -420 166 -326 425 -581 750 -742 337 -167 719 -218
1085 -144 191 39 423 135 586 243 l89 60 735 -733 c808 -806 758 -763 879
-754 112 8 198 94 208 206 11 123 50 77 -757 887 l-729 730 59 89 c245 367
332 834 240 1274 -146 694 -720 1224 -1428 1317 -102 14 -299 18 -377 8z m383
-508 c523 -99 915 -535 961 -1067 50 -583 -327 -1113 -894 -1257 -303 -77
-646 -25 -911 138 -354 218 -566 596 -567 1011 -1 330 115 612 347 846 236
237 552 362 881 349 55 -3 138 -12 183 -20z"/>
</g>
</svg>
